<svg width="167" height="49" viewBox="0 0 167 49" fill="none" xmlns="http://www.w3.org/2000/svg">
<g clip-path="url(#clip0_9_65)">
<path d="M21.67 12.1408V46.0087C21.67 48.2784 19.2277 49.6932 17.2774 48.5613L1.46419 39.3707C0.556392 38.846 0 37.8733 0 36.8181V2.95603C0 0.686368 2.44227 -0.728482 4.39257 0.403398L20.2059 9.59403C21.1136 10.1187 21.67 11.0914 21.67 12.1466V12.1408ZM44.8042 0.397503L42.0633 1.98921V10.5373C42.0633 10.6492 41.9578 10.7318 41.8466 10.7082L40.6459 10.4311C40.5815 10.4193 40.5112 10.443 40.4702 10.496L38.965 12.406C38.8655 12.5357 38.6546 12.465 38.6546 12.294V3.97L28.9909 9.58813C28.0832 10.1128 27.5268 11.0855 27.5268 12.1408V46.0087C27.5268 48.2784 29.9691 49.6932 31.9193 48.5613L47.7326 39.3707C48.6404 38.846 49.1968 37.8733 49.1968 36.8181V2.95013C49.1968 0.686368 46.7545 -0.734377 44.8042 0.397503Z" fill="url(#paint0_linear_9_65)"/>
<path d="M66.8 17.4574H73.356C76.0471 17.4574 77.4976 18.8313 77.4976 20.8297C77.4976 22.2036 76.7437 23.2605 75.255 23.7697C76.9059 24.1444 77.8507 25.355 77.8507 26.9595C77.8507 29.1597 76.133 30.6009 73.2129 30.6009H66.8V17.4574ZM69.6343 19.8017V22.7801H72.6975C74.0431 22.7801 74.5775 22.2036 74.5775 21.3005C74.5775 20.234 73.8236 19.8017 72.6975 19.8017H69.6343ZM69.6343 24.9899V28.2566H72.7834C74.148 28.2566 74.8829 27.7185 74.8829 26.6136C74.8829 25.5856 74.2721 24.9899 72.7834 24.9899H69.6343Z" fill="#E9F0EF"/>
<path d="M79.8357 30.6009V17.4574H82.6699V30.6009H79.8357Z" fill="#E9F0EF"/>
<path d="M85.2463 17.4574H91.8023C94.4934 17.4574 95.9438 18.8313 95.9438 20.8297C95.9438 22.2036 95.19 23.2605 93.7013 23.7697C95.3522 24.1444 96.2969 25.355 96.2969 26.9595C96.2969 29.1597 94.5793 30.6009 91.6591 30.6009H85.2463V17.4574ZM88.071 19.8017V22.7801H91.1343C92.4798 22.7801 93.0142 22.2036 93.0142 21.3005C93.0142 20.234 92.2603 19.8017 91.1343 19.8017H88.071ZM88.071 24.9899V28.2566H91.2202C92.5848 28.2566 93.3196 27.7185 93.3196 26.6136C93.3196 25.5856 92.7089 24.9899 91.2202 24.9899H88.071Z" fill="#E9F0EF"/>
<path d="M98.282 17.4574H101.116V28.1893H107.758V30.6009H98.282V17.4574Z" fill="#E9F0EF"/>
<path d="M109.037 30.6009V17.4574H111.871V30.6009H109.037Z" fill="#E9F0EF"/>
<path d="M113.856 24.0196C113.856 19.9075 115.955 17.2941 120.001 17.2941C123.761 17.2941 126.166 19.5808 126.166 24.0196C126.166 28.151 124.057 30.7835 120.001 30.7835C116.241 30.7835 113.856 28.4777 113.856 24.0196ZM123.189 24.0196C123.189 21.4447 122.187 19.8402 120.001 19.8402C118.045 19.8402 116.833 21.1373 116.833 24.0196C116.833 26.5945 117.816 28.2375 120.001 28.2375C121.967 28.2375 123.189 26.9404 123.189 24.0196Z" fill="#E9F0EF"/>
<path d="M134.927 19.8689H130.785V17.4574H141.855V19.8689H137.751V30.6009H134.917V19.8689H134.927Z" fill="#E9F0EF"/>
<path d="M143.4 17.4574H152.838V19.8401H146.225V22.7417H152.046V25.086H146.225V28.1893H153.373V30.6009H143.4V17.4574Z" fill="#E9F0EF"/>
<path d="M154.232 24.0196C154.232 19.869 156.398 17.2941 160.415 17.2941C163.803 17.2941 165.912 19.1677 166.256 21.9828L163.412 22.3767C163.164 20.753 162.105 19.8306 160.406 19.8306C158.364 19.8306 157.219 21.2333 157.219 24.01C157.219 26.7867 158.297 28.2279 160.406 28.2279C162.143 28.2279 163.221 27.3055 163.469 25.6722L166.313 25.9988C165.988 29.0445 163.622 30.7739 160.387 30.7739C156.589 30.7739 154.241 28.3912 154.241 24.01L154.232 24.0196Z" fill="#E9F0EF"/>
</g>
<defs>
<linearGradient id="paint0_linear_9_65" x1="14.5833" y1="57.4984" x2="28.8121" y2="4.74756" gradientUnits="userSpaceOnUse">
<stop stop-color="#4A67DF"/>
<stop offset="0.32" stop-color="#4A67DF"/>
<stop offset="0.94" stop-color="#2FD6CB"/>
<stop offset="1" stop-color="#2FD6CB"/>
</linearGradient>
<clipPath id="clip0_9_65">
<rect width="167" height="49" fill="white"/>
</clipPath>
</defs>
</svg>
